<svg xmlns="http://www.w3.org/2000/svg" fill="none" viewBox="0 0 65 65"><mask id="b" width="65" height="65" x="0" y="0" maskUnits="userSpaceOnUse" style="mask-type:alpha"><path fill="#000" d="M32.4 0q1.1.1 1.5 1.1a39 39 0 0 0 2 6q3.2 7.4 8.8 13 5.7 5.7 13.2 9a39 39 0 0 0 5.9 2 1.5 1.5 0 0 1 0 2.8 39 39 0 0 0-6 2q-7.4 3.2-13 8.8-5.7 5.7-9 13.2a39 39 0 0 0-2 5.9 2 2 0 0 1-1.4 1q-1 0-1.4-1a39 39 0 0 0-2-6q-3.2-7.4-8.8-13-5.7-5.7-13.2-9a39 39 0 0 0-5.9-2A2 2 0 0 1 0 32.5q.1-1 1.1-1.4a39 39 0 0 0 6-2q7.4-3.2 13-8.8 5.7-5.7 9-13.2a39 39 0 0 0 2-5.9A2 2 0 0 1 32.3 0"/><path fill="url(#a)" d="M32.4 0q1.1.1 1.5 1.1a39 39 0 0 0 2 6q3.2 7.4 8.8 13 5.7 5.7 13.2 9a39 39 0 0 0 5.9 2 1.5 1.5 0 0 1 0 2.8 39 39 0 0 0-6 2q-7.4 3.2-13 8.8-5.7 5.7-9 13.2a39 39 0 0 0-2 5.9 2 2 0 0 1-1.4 1q-1 0-1.4-1a39 39 0 0 0-2-6q-3.2-7.4-8.8-13-5.7-5.7-13.2-9a39 39 0 0 0-5.9-2A2 2 0 0 1 0 32.5q.1-1 1.1-1.4a39 39 0 0 0 6-2q7.4-3.2 13-8.8 5.7-5.7 9-13.2a39 39 0 0 0 2-5.9A2 2 0 0 1 32.3 0"/></mask><g mask="url(#b)"><g filter="url(#c)"><path fill="#ffe432" d="M-5.9 50.7c7.5 2.7 16.2-2.3 19.3-11.1s-.4-18.1-8-20.8-16 2.3-19.2 11.1.4 18.2 8 20.8"/></g><g filter="url(#d)"><path fill="#fc413d" d="M27.4 21.6c10.3 0 18.7-8.5 18.7-19s-8.4-19-18.7-19S8.8-8 8.8 2.5s8.3 19 18.6 19"/></g><g filter="url(#e)"><path fill="#00b95c" d="M20.2 82.6c10.7-.5 18.9-12.2 18.2-26.2s-10-24.8-20.7-24.2S-1.2 44.4-.5 58.3s10 24.8 20.7 24.3"/></g><g filter="url(#f)"><path fill="#00b95c" d="M20.2 82.6c10.7-.5 18.9-12.2 18.2-26.2s-10-24.8-20.7-24.2S-1.2 44.4-.5 58.3s10 24.8 20.7 24.3"/></g><g filter="url(#g)"><path fill="#00b95c" d="M31 74.2c9-5.5 11.4-18 5.3-28-6-9.8-18.2-13.4-27.2-8s-11.4 18-5.4 28 18.2 13.5 27.3 8"/></g><g filter="url(#h)"><path fill="#3186ff" d="M67.4 43c10.1 0 18.3-8 18.3-17.7S77.5 7.7 67.4 7.7 49 15.6 49 25.3 57.3 43 67.4 43"/></g><g filter="url(#i)"><path fill="#fbbc04" d="M-13 41c9.3 7 22.9 4.8 30.4-5s6-23.6-3.4-30.7-23-4.9-30.4 5c-7.5 9.8-6 23.5 3.3 30.6"/></g><g filter="url(#j)"><path fill="#3186ff" d="M34.7 51.4c11.2 7.7 26 5.6 33-4.7s3.8-24.9-7.3-32.5-26-5.5-33 4.7c-7 10.3-3.8 24.9 7.3 32.5"/></g><g filter="url(#k)"><path fill="#749bff" d="M55-2.3c2.8 3.8-.8 11.3-8.1 16.7S31.3 21 28.5 17.2c-2.9-3.9.8-11.4 8-16.8S52.3-6.2 55-2.3"/></g><g filter="url(#l)"><path fill="#fc413d" d="M31.7 16.1C43.1 5.6 47-8.6 40.4-15.7s-21-4.2-32.3 6.3S-7.1 15.3-.6 22.4c6.5 7 21 4.2 32.3-6.3"/></g><g filter="url(#m)"><path fill="#ffee48" d="M8.5 53.8c6.7 4.9 14.5 5.6 17.3 1.7 2.8-4-.4-11-7.1-15.8S4.2 34 1.4 38s.4 11 7.1 15.8"/></g></g><defs><filter id="c" width="39.3" height="43.2" x="-19.8" y="13.2" color-interpolation-filters="sRGB" filterUnits="userSpaceOnUse"><feFlood flood-opacity="0" result="BackgroundImageFix"/><feBlend in="SourceGraphic" in2="BackgroundImageFix" result="shape"/><feGaussianBlur result="effect1_foregroundBlur_2001_67" stdDeviation="2.5"/></filter><filter id="d" width="84.9" height="85.7" x="-15" y="-40.3" color-interpolation-filters="sRGB" filterUnits="userSpaceOnUse"><feFlood flood-opacity="0" result="BackgroundImageFix"/><feBlend in="SourceGraphic" in2="BackgroundImageFix" result="shape"/><feGaussianBlur result="effect1_foregroundBlur_2001_67" stdDeviation="11.9"/></filter><filter id="e" width="79.5" height="90.9" x="-20.8" y="11.9" color-interpolation-filters="sRGB" filterUnits="userSpaceOnUse"><feFlood flood-opacity="0" result="BackgroundImageFix"/><feBlend in="SourceGraphic" in2="BackgroundImageFix" result="shape"/><feGaussianBlur result="effect1_foregroundBlur_2001_67" stdDeviation="10.1"/></filter><filter id="f" width="79.5" height="90.9" x="-20.8" y="11.9" color-interpolation-filters="sRGB" filterUnits="userSpaceOnUse"><feFlood flood-opacity="0" result="BackgroundImageFix"/><feBlend in="SourceGraphic" in2="BackgroundImageFix" result="shape"/><feGaussianBlur result="effect1_foregroundBlur_2001_67" stdDeviation="10.1"/></filter><filter id="g" width="79.7" height="81.5" x="-19.8" y="15.5" color-interpolation-filters="sRGB" filterUnits="userSpaceOnUse"><feFlood flood-opacity="0" result="BackgroundImageFix"/><feBlend in="SourceGraphic" in2="BackgroundImageFix" result="shape"/><feGaussianBlur result="effect1_foregroundBlur_2001_67" stdDeviation="10.1"/></filter><filter id="h" width="75.1" height="73.8" x="29.8" y="-11.6" color-interpolation-filters="sRGB" filterUnits="userSpaceOnUse"><feFlood flood-opacity="0" result="BackgroundImageFix"/><feBlend in="SourceGraphic" in2="BackgroundImageFix" result="shape"/><feGaussianBlur result="effect1_foregroundBlur_2001_67" stdDeviation="9.6"/></filter><filter id="i" width="78.1" height="78.8" x="-38.6" y="-16.3" color-interpolation-filters="sRGB" filterUnits="userSpaceOnUse"><feFlood flood-opacity="0" result="BackgroundImageFix"/><feBlend in="SourceGraphic" in2="BackgroundImageFix" result="shape"/><feGaussianBlur result="effect1_foregroundBlur_2001_67" stdDeviation="8.7"/></filter><filter id="j" width="78.9" height="77.5" x="8.1" y="-6" color-interpolation-filters="sRGB" filterUnits="userSpaceOnUse"><feFlood flood-opacity="0" result="BackgroundImageFix"/><feBlend in="SourceGraphic" in2="BackgroundImageFix" result="shape"/><feGaussianBlur result="effect1_foregroundBlur_2001_67" stdDeviation="7.8"/></filter><filter id="k" width="56.3" height="51.8" x="13.6" y="-18.5" color-interpolation-filters="sRGB" filterUnits="userSpaceOnUse"><feFlood flood-opacity="0" result="BackgroundImageFix"/><feBlend in="SourceGraphic" in2="BackgroundImageFix" result="shape"/><feGaussianBlur result="effect1_foregroundBlur_2001_67" stdDeviation="7"/></filter><filter id="l" width="70.9" height="69.3" x="-15.5" y="-31.3" color-interpolation-filters="sRGB" filterUnits="userSpaceOnUse"><feFlood flood-opacity="0" result="BackgroundImageFix"/><feBlend in="SourceGraphic" in2="BackgroundImageFix" result="shape"/><feGaussianBlur result="effect1_foregroundBlur_2001_67" stdDeviation="5.9"/></filter><filter id="m" width="55.5" height="51.6" x="-14.2" y="21" color-interpolation-filters="sRGB" filterUnits="userSpaceOnUse"><feFlood flood-opacity="0" result="BackgroundImageFix"/><feBlend in="SourceGraphic" in2="BackgroundImageFix" result="shape"/><feGaussianBlur result="effect1_foregroundBlur_2001_67" stdDeviation="7.3"/></filter><linearGradient id="a" x1="18.4" x2="52.2" y1="43.4" y2="15" gradientUnits="userSpaceOnUse"><stop stop-color="#4893fc"/><stop offset=".3" stop-color="#4893fc"/><stop offset=".8" stop-color="#969dff"/><stop offset="1" stop-color="#bd99fe"/></linearGradient></defs></svg>